# xmcd
#
# Track frame offsets: 
#        150
#        15659
#        32050
#        48612
#        61103
#        74966
#        90046
#        104789
#        122744
#        138669
#        154893
#        170827
#        186905
#        206123
#
# Disc length: 3050 seconds
#
# Revision: 17
# Processed by: cddbd v1.5.2PL0 Copyright (c) Steve Scherf et al.
# Submitted via: ExactAudioCopy v1.3
#
DISCID=d40be80e
DTITLE=Toby Keith - Greatest Hits 2
DYEAR=2004
DGENRE=Country
TTITLE0=How Do You Like Me Now?
TTITLE1=Country Comes To Town
TTITLE2=You Shouldn't Kiss Me Like This
TTITLE3=I'm Just Talkin' About Tonight
TTITLE4=I Wanna Talk About Me
TTITLE5=My List
TTITLE6=Courtesy Of The Red, White And Blue (The Angry American)
TTITLE7=Who's Your Daddy?
TTITLE8=Beer For My Horses (duet with Willie Nelson)
TTITLE9=Stays In Mexico
TTITLE10=Mockingbird (duet with Krystal)
TTITLE11=Go With Her
TTITLE12=You Ain't Much Fun (Live)
TTITLE13=Should've Been A Cowboy (Live)
EXTD=
EXTT0=
EXTT1=
EXTT2=
EXTT3=
EXTT4=
EXTT5=
EXTT6=
EXTT7=
EXTT8=
EXTT9=
EXTT10=
EXTT11=
EXTT12=
EXTT13=
PLAYORDER=
